<?xml version="1.0" encoding="utf-8"?>
<svg version="1.1" width="20" height="20" viewBox="0 0 20 20" xmlns="http://www.w3.org/2000/svg">
  <defs>
    <pattern id="pattern-0" x="0" y="0" width="20" height="20" patternUnits="userSpaceOnUse" viewBox="0 0 100 100">
      <path d="M 0 0 L 50 0 L 50 100 L 0 100 Z" style="fill: black;"/>
    </pattern>
  </defs>
  <path d="M 12.261 17.356 C 12.076 17.356 11.927 17.206 11.927 17.022 L 11.927 8.023 L 2.926 8.023 C 2.742 8.023 2.593 7.874 2.593 7.69 C 2.593 7.505 2.742 7.356 2.926 7.356 L 12.261 7.356 C 12.443 7.356 12.593 7.505 12.593 7.69 L 12.593 17.022 C 12.593 17.206 12.443 17.356 12.261 17.356 Z" transform="matrix(0.707107, -0.707107, 0.707107, 0.707107, -6.513074, 8.988051)" style="fill: rgb(255, 255, 255);"/>
  <path d="M 17.235 17.656 C 17.05 17.656 16.901 17.506 16.901 17.322 L 16.901 8.323 L 7.901 8.323 C 7.716 8.323 7.568 8.174 7.568 7.99 C 7.568 7.805 7.716 7.656 7.901 7.656 L 17.235 7.656 C 17.418 7.656 17.568 7.805 17.568 7.99 L 17.568 17.322 C 17.568 17.506 17.418 17.656 17.235 17.656 Z" transform="matrix(0.707107, -0.707107, 0.707107, 0.707107, -5.268061, 12.593775)" style="fill: rgb(255, 255, 255);"/>
  <path d="M 14.902 17.603 C 14.717 17.603 14.568 17.453 14.568 17.269 L 14.568 8.27 L 5.567 8.27 C 5.383 8.27 5.234 8.121 5.234 7.937 C 5.234 7.752 5.383 7.603 5.567 7.603 L 14.902 7.603 C 15.084 7.603 15.234 7.752 15.234 7.937 L 15.234 17.269 C 15.234 17.453 15.084 17.603 14.902 17.603 Z" transform="matrix(0.707107, -0.707107, 0.707107, 0.707107, -5.914198, 10.927864)" style="fill: rgb(255, 255, 255);"/>
</svg>