<svg xmlns="http://www.w3.org/2000/svg" xmlns:xlink="http://www.w3.org/1999/xlink" width="512" zoomAndPan="magnify" viewBox="0 0 384 383.999986" height="512" preserveAspectRatio="xMidYMid meet" version="1.0"><defs><clipPath id="id1"><path d="M 21.414062 21.414062 L 362.664062 21.414062 L 362.664062 362.664062 L 21.414062 362.664062 Z M 21.414062 21.414062 " clip-rule="nonzero"/></clipPath></defs><g clip-path="url(#id1)"><path fill="rgb(100%, 100%, 100%)" d="M 195.234375 214.320312 L 191.851562 214.320312 L 158.171875 279.921875 L 158.171875 283.867188 L 225.40625 284.554688 L 225.40625 279.488281 Z M 346.605469 316.058594 L 346.605469 335.050781 L 327.613281 335.050781 L 327.613281 317.222656 L 232.128906 144.742188 L 227.578125 144.742188 L 201.605469 195.332031 L 202.480469 195.332031 L 202.480469 214.320312 L 200.660156 214.320312 L 228.800781 275.105469 L 244.398438 275.105469 L 244.398438 294.09375 L 225.40625 294.09375 L 225.40625 289.480469 L 158.171875 288.789062 L 158.171875 294.09375 L 139.179688 294.09375 L 139.179688 275.105469 L 155.109375 275.105469 L 186.320312 214.320312 L 183.488281 214.320312 L 183.488281 195.332031 L 186.445312 195.332031 L 121.679688 55.453125 L 118.59375 55.453125 L 56.460938 199.859375 L 56.460938 214.320312 L 37.472656 214.320312 L 37.472656 195.332031 L 53.050781 195.332031 L 113.234375 55.453125 L 110.503906 55.453125 L 110.503906 36.460938 L 129.492188 36.460938 L 129.492188 55.453125 L 127.105469 55.453125 L 191.867188 195.332031 L 196.066406 195.332031 L 222.042969 144.742188 L 220.191406 144.742188 L 220.191406 125.75 L 239.183594 125.75 L 239.183594 144.742188 L 237.753906 144.742188 L 332.601562 316.058594 Z M 356.445312 237.839844 C 360.570312 222.996094 362.660156 207.585938 362.660156 192.039062 C 362.660156 169.003906 358.148438 146.660156 349.25 125.625 C 340.660156 105.304688 328.355469 87.058594 312.6875 71.390625 C 297.019531 55.722656 278.769531 43.417969 258.453125 34.824219 C 237.414062 25.929688 215.070312 21.417969 192.039062 21.417969 C 177.285156 21.417969 162.640625 23.300781 148.507812 27.019531 L 149.945312 32.480469 C 163.609375 28.886719 177.773438 27.0625 192.039062 27.0625 C 283.003906 27.0625 357.011719 101.074219 357.011719 192.039062 C 357.011719 221.664062 349.074219 250.710938 334.050781 276.050781 L 338.90625 278.929688 C 346.542969 266.050781 352.445312 252.226562 356.445312 237.839844 Z M 192.039062 362.660156 C 169.003906 362.660156 146.660156 358.148438 125.625 349.25 C 105.304688 340.660156 87.058594 328.355469 71.390625 312.6875 C 55.722656 297.019531 43.417969 278.769531 34.824219 258.453125 C 25.925781 237.414062 21.417969 215.070312 21.417969 192.039062 C 21.417969 177.96875 23.132812 163.980469 26.519531 150.457031 C 29.808594 137.324219 34.683594 124.582031 41.003906 112.585938 C 47.214844 100.800781 54.828125 89.734375 63.628906 79.679688 C 72.394531 69.667969 82.328125 60.6875 93.15625 52.972656 L 96.433594 57.574219 C 52.996094 88.515625 27.066406 138.78125 27.066406 192.039062 C 27.066406 283.003906 101.070312 357.011719 192.039062 357.011719 C 232.460938 357.011719 271.351562 342.246094 301.542969 315.433594 L 305.292969 319.65625 C 290.007812 333.230469 272.640625 343.839844 253.667969 351.191406 C 234.023438 358.800781 213.289062 362.660156 192.039062 362.660156 " fill-opacity="1" fill-rule="nonzero"/></g></svg>